<?xml version="1.0" encoding="UTF-8"?>
<svg width="511px" height="434px" viewBox="0 0 511 434" version="1.1" xmlns="http://www.w3.org/2000/svg" xmlns:xlink="http://www.w3.org/1999/xlink">
    <!-- Generator: Sketch 45.2 (43514) - http://www.bohemiancoding.com/sketch -->
    <title>Flanimations Icon</title>
    <desc>Created with Sketch.</desc>
    <defs></defs>
    <g id="Page-1" stroke="none" stroke-width="1" fill="none" fill-rule="evenodd">
        <g id="Flanimations-Icon">
            <g id="flan_icons" transform="translate(206.379260, 0.000000)" fill-rule="nonzero" fill="#FFFFFF">
                <path d="M38.3725692,56.9670778 C48.4768544,26.1448829 89.3854001,0 152.310312,0 C215.235223,0 256.143769,26.1448829 266.248054,56.9670778 C279.458591,97.2622643 304.226106,213.445404 304.226106,246.860924 C304.226106,288.813256 236.211389,322.820615 152.310312,322.820615 C68.409234,322.820615 0.394517328,288.813256 0.394517328,246.864511 C0.394517328,213.445404 25.1620323,97.2658512 38.3725692,56.9670778 L38.3725692,56.9670778 Z M258.173952,83.4921717 C249.414753,92.28724 234.945215,99.5004872 217.559532,105.278976 C196.239024,112.363095 219.130592,149.856916 219.130592,165.653605 C219.130592,176.640267 210.22433,185.550116 199.234082,185.550116 C188.24742,185.550116 179.337571,176.643853 179.337571,165.653605 C179.337571,140.154363 202.76,113.941329 152.310312,113.941329 C107.847152,113.941329 64.5246259,102.682064 46.3283039,83.9297729 C44.9401753,89.1774014 43.6273714,94.4357905 42.3396759,99.6439631 C38.1286603,116.660196 34.2727474,133.79121 30.6822648,150.947333 C26.7008105,169.968641 22.9919604,189.119077 19.9251645,208.312556 C18.0097622,220.285614 15.5886076,234.758738 15.5886076,246.868098 C15.5886076,265.311916 37.2283495,279.759932 51.6835392,286.991113 C81.5444461,301.92336 119.217612,307.633698 152.310312,307.633698 C185.403012,307.633698 223.076177,301.919773 252.937084,286.991113 C267.395861,279.763519 289.035603,265.315503 289.035603,246.868098 C289.035603,234.758738 286.610861,220.285614 284.699046,208.312556 C281.63225,189.119077 277.9234,169.968641 273.941946,150.947333 C270.347876,133.787623 266.49555,116.660196 262.284534,99.6439631 C260.957383,94.2887278 259.605123,88.8868628 258.173952,83.4921717 L258.173952,83.4921717 Z M204.675402,175.671805 C203.864764,176.112993 202.985974,176.460922 202.056968,176.697657 C201.160245,176.923631 200.216891,177.045586 199.234082,177.045586 C196.091961,177.045586 193.240379,175.772238 191.177914,173.709773 C189.115449,171.647308 187.838514,168.799313 187.838514,165.653605 C187.838514,164.606231 186.992006,163.756137 185.937459,163.756137 C184.890086,163.756137 184.043578,164.606231 184.043578,165.653605 C184.043578,169.850273 185.743767,173.648796 188.491329,176.396358 C191.238891,179.147507 195.037414,180.847695 199.230495,180.847695 C200.514603,180.847695 201.770017,180.686285 202.971627,180.381399 C204.198345,180.069339 205.378434,179.603042 206.483198,179.000444 C207.401443,178.501865 207.738611,177.354059 207.240033,176.435814 C206.745041,175.510394 205.593648,175.173226 204.675402,175.671805 Z" id="Shape"></path>
            </g>
            <path d="M30.4886136,310.26648 L156.029964,231.354774" id="Line-2" stroke="#FFFFFF" stroke-width="2" stroke-linecap="square"></path>
            <path d="M1.79344786,389.178186 L138.095485,303.092688" id="Line-2" stroke="#FFFFFF" stroke-width="2" stroke-linecap="square"></path>
            <path d="M62.7706751,410.69956 L202.659608,324.614063" id="Line-2" stroke="#FFFFFF" stroke-width="2" stroke-linecap="square"></path>
            <path d="M141.682381,432.220934 L281.571314,346.135437" id="Line-2" stroke="#FFFFFF" stroke-width="2" stroke-linecap="square"></path>
        </g>
    </g>
</svg>