<svg xmlns="http://www.w3.org/2000/svg" xmlns:xlink="http://www.w3.org/1999/xlink" version="1.1" x="0px" y="0px" viewBox="0 0 100 125" enable-background="new 0 0 100 100" xml:space="preserve"><path fill-rule="evenodd" clip-rule="evenodd" d="M18.235,20.882C21.052,12.289,32.457,5,50,5c17.543,0,28.948,7.289,31.765,15.882  c3.683,11.234,10.588,43.625,10.588,52.941C92.353,85.519,73.391,95,50,95S7.647,85.519,7.647,73.824  C7.647,64.507,14.552,32.117,18.235,20.882L18.235,20.882z M79.514,28.277c-2.442,2.452-6.476,4.463-11.323,6.074  c-5.944,1.975,0.438,12.428,0.438,16.832c0,3.063-2.483,5.547-5.547,5.547c-3.063,0-5.547-2.483-5.547-5.547  c0-7.109,6.53-14.417-7.535-14.417c-12.396,0-24.474-3.139-29.547-8.367c-0.387,1.463-0.753,2.929-1.112,4.381  c-1.174,4.744-2.249,9.52-3.25,14.303c-1.11,5.303-2.144,10.642-2.999,15.993c-0.534,3.338-1.209,7.373-1.209,10.749  c0,5.142,6.033,9.17,10.063,11.186c8.325,4.163,18.828,5.755,28.054,5.755s19.729-1.593,28.054-5.755  c4.031-2.015,10.064-6.043,10.064-11.186c0-3.376-0.676-7.411-1.209-10.749c-0.855-5.351-1.889-10.69-2.999-15.993  c-1.002-4.784-2.076-9.559-3.25-14.303C80.29,31.287,79.913,29.781,79.514,28.277L79.514,28.277z M64.599,53.976  c-0.226,0.123-0.471,0.22-0.73,0.286c-0.25,0.063-0.513,0.097-0.787,0.097c-0.876,0-1.671-0.355-2.246-0.93  c-0.575-0.575-0.931-1.369-0.931-2.246c0-0.292-0.236-0.529-0.53-0.529c-0.292,0-0.528,0.237-0.528,0.529  c0,1.17,0.474,2.229,1.24,2.995c0.766,0.767,1.825,1.241,2.994,1.241c0.358,0,0.708-0.045,1.043-0.13  c0.342-0.087,0.671-0.217,0.979-0.385c0.256-0.139,0.35-0.459,0.211-0.715C65.176,53.931,64.855,53.837,64.599,53.976z"/><text x="0" y="115" fill="#000000" font-size="5px" font-weight="bold" font-family="'Helvetica Neue', Helvetica, Arial-Unicode, Arial, Sans-serif">Created by Krisada</text><text x="0" y="120" fill="#000000" font-size="5px" font-weight="bold" font-family="'Helvetica Neue', Helvetica, Arial-Unicode, Arial, Sans-serif">from the Noun Project</text></svg>